<svg width="17" height="19" viewBox="0 0 17 19" fill="none" xmlns="http://www.w3.org/2000/svg">
<path d="M12.8477 8.40234V10.25H3.65234V8.40234H12.8477ZM14.6523 2C15.168 2 15.5977 2.1862 15.9414 2.55859C16.3138 2.90234 16.5 3.33203 16.5 3.84766V16.6523C16.5 17.168 16.3138 17.612 15.9414 17.9844C15.5977 18.3281 15.168 18.5 14.6523 18.5H1.84766C1.33203 18.5 0.888021 18.3281 0.515625 17.9844C0.171875 17.612 0 17.168 0 16.6523V3.84766C0 3.33203 0.171875 2.90234 0.515625 2.55859C0.888021 2.1862 1.33203 2 1.84766 2H2.75V0.152344H4.59766V2H11.9023V0.152344H13.75V2H14.6523ZM14.6523 16.6523V6.59766H1.84766V16.6523H14.6523ZM10.0977 12.0977V13.9023H3.65234V12.0977H10.0977Z" fill="black"/>
</svg>
