<svg width="17" height="17" viewBox="0 0 17 17" fill="none" xmlns="http://www.w3.org/2000/svg">
<path d="M15.5977 11.4727C15.8268 11.4727 16.0273 11.5586 16.1992 11.7305C16.3997 11.9023 16.5 12.1172 16.5 12.375V15.5977C16.5 15.8268 16.3997 16.0417 16.1992 16.2422C16.0273 16.4141 15.8268 16.5 15.5977 16.5C12.7617 16.5 10.1406 15.8125 7.73438 14.4375C5.35677 13.0339 3.46615 11.1432 2.0625 8.76562C0.6875 6.35938 0 3.73828 0 0.90234C0 0.67318 0.0859375 0.472656 0.257812 0.300781C0.458333 0.10026 0.673177 0 0.902344 0H4.125C4.38281 0 4.59766 0.10026 4.76953 0.300781C4.94141 0.472656 5.02734 0.67318 5.02734 0.90234C5.02734 2.04818 5.19922 3.13672 5.54297 4.16797C5.65755 4.54036 5.58594 4.85547 5.32812 5.11328L3.30859 7.13281C4.65495 9.7969 6.67448 11.8164 9.36719 13.1914L11.3867 11.1719C11.6445 10.9141 11.9596 10.8424 12.332 10.957C13.3633 11.3008 14.4518 11.4727 15.5977 11.4727ZM14.6523 8.25C14.6523 6.47396 14.0221 4.97005 12.7617 3.73828C11.5299 2.47786 10.026 1.84766 8.25 1.84766V0C10.5417 0 12.4896 0.80208 14.0938 2.40625C15.6979 4.01042 16.5 5.95833 16.5 8.25H14.6523ZM11 8.25C11 7.47656 10.7279 6.83203 10.1836 6.31641C9.66797 5.77214 9.02344 5.5 8.25 5.5V3.65234C9.51042 3.65234 10.5846 4.11068 11.4727 5.02734C12.3893 5.91536 12.8477 6.98958 12.8477 8.25H11Z" fill="black"/>
</svg>
