<svg width="19" height="19" viewBox="0 0 19 19" fill="none" xmlns="http://www.w3.org/2000/svg">
<path d="M14.5508 10.8828C14.5508 10.2526 14.4362 9.7943 14.207 9.5078C13.9779 9.19271 13.5482 9.03516 12.918 9.03516C12.1445 9.03516 11.6003 9.26432 11.2852 9.7227C10.9701 10.181 10.8125 10.8255 10.8125 11.6562V17.9297C10.8125 18.0729 10.7695 18.1875 10.6836 18.2734C10.5977 18.3594 10.4831 18.4023 10.3398 18.4023H7.07422C6.95964 18.4023 6.84505 18.3594 6.73047 18.2734C6.64453 18.1875 6.60156 18.0729 6.60156 17.9297V6.32812C6.60156 6.21354 6.64453 6.11328 6.73047 6.02734C6.84505 5.91276 6.95964 5.85547 7.07422 5.85547H10.2539C10.3685 5.85547 10.4544 5.88411 10.5117 5.94141C10.5977 5.9987 10.6549 6.08464 10.6836 6.19922C10.6836 6.3138 10.6836 6.38542 10.6836 6.41406C10.7122 6.47135 10.7266 6.57161 10.7266 6.71484C11.5286 5.94141 12.6172 5.55469 13.9922 5.55469C15.5104 5.55469 16.6992 5.94141 17.5586 6.71484C18.418 7.48828 18.8477 8.61979 18.8477 10.1094V17.9297C18.8477 18.0729 18.7904 18.1875 18.6758 18.2734C18.5898 18.3594 18.4896 18.4023 18.375 18.4023H15.0234C14.9089 18.4023 14.7943 18.3594 14.6797 18.2734C14.5938 18.1875 14.5508 18.0729 14.5508 17.9297V10.8828ZM4.92578 2.33203C4.92578 2.93359 4.71094 3.46354 4.28125 3.92188C3.85156 4.35156 3.32161 4.56641 2.69141 4.56641C2.08984 4.56641 1.57422 4.35156 1.14453 3.92188C0.714844 3.46354 0.5 2.93359 0.5 2.33203C0.5 1.70182 0.714844 1.17188 1.14453 0.74219C1.57422 0.3125 2.08984 0.0976562 2.69141 0.0976562C3.32161 0.0976562 3.85156 0.3125 4.28125 0.74219C4.71094 1.17188 4.92578 1.70182 4.92578 2.33203ZM4.83984 6.32812V17.9297C4.83984 18.0729 4.78255 18.1875 4.66797 18.2734C4.58203 18.3594 4.48177 18.4023 4.36719 18.4023H1.10156C0.958333 18.4023 0.84375 18.3594 0.757812 18.2734C0.671875 18.1875 0.628906 18.0729 0.628906 17.9297V6.32812C0.628906 6.21354 0.671875 6.11328 0.757812 6.02734C0.84375 5.91276 0.958333 5.85547 1.10156 5.85547H4.36719C4.48177 5.85547 4.58203 5.91276 4.66797 6.02734C4.78255 6.11328 4.83984 6.21354 4.83984 6.32812Z" fill="black"/>
</svg>
