<svg width="19" height="19" viewBox="0 0 19 19" fill="none" xmlns="http://www.w3.org/2000/svg">
<path d="M17 4.22266V2.375C17 2.0599 16.8424 1.90234 16.5273 1.90234H14.7227C14.4076 1.90234 14.25 2.0599 14.25 2.375V4.22266C14.25 4.50911 14.4076 4.65234 14.7227 4.65234H16.5273C16.8424 4.65234 17 4.50911 17 4.22266ZM2.77734 16.5977H16.5273C16.8424 16.5977 17 16.4401 17 16.125V8.34766H15.0664C15.1237 8.69141 15.1523 8.99219 15.1523 9.25C15.1523 10.7682 14.6081 12.0716 13.5195 13.1602C12.4596 14.2201 11.1706 14.75 9.65234 14.75C8.13411 14.75 6.83073 14.2201 5.74219 13.1602C4.68229 12.0716 4.15234 10.7682 4.15234 9.25C4.15234 8.9349 4.18099 8.63411 4.23828 8.34766H2.34766V16.125C2.34766 16.4401 2.49089 16.5977 2.77734 16.5977ZM12.2734 6.67188C11.5573 5.95573 10.6836 5.59766 9.65234 5.59766C8.64974 5.59766 7.79036 5.95573 7.07422 6.67188C6.35807 7.38802 6 8.2474 6 9.25C6 10.2526 6.35807 11.112 7.07422 11.8281C7.79036 12.5443 8.64974 12.9023 9.65234 12.9023C10.6836 12.9023 11.5573 12.5443 12.2734 11.8281C12.9896 11.112 13.3477 10.2526 13.3477 9.25C13.3477 8.2474 12.9896 7.38802 12.2734 6.67188ZM17 0.0976562C17.5156 0.0976562 17.9453 0.283854 18.2891 0.65625C18.6615 1 18.8477 1.41536 18.8477 1.90234V16.5977C18.8477 17.0846 18.6615 17.5 18.2891 17.8438C17.9453 18.2161 17.5156 18.4023 17 18.4023H2.34766C1.83203 18.4023 1.38802 18.2161 1.01562 17.8438C0.671875 17.5 0.5 17.0846 0.5 16.5977V1.90234C0.5 1.41536 0.671875 1 1.01562 0.65625C1.38802 0.283854 1.83203 0.0976562 2.34766 0.0976562H17Z" fill="black"/>
</svg>
