<svg width="14" height="19" viewBox="0 0 14 19" fill="none" xmlns="http://www.w3.org/2000/svg">
<path d="M12.4023 5.59766C12.4023 6.37109 12.2161 7.24479 11.8438 8.21875C11.4714 9.19271 11.013 10.0951 10.4688 10.9258C9.92448 11.7565 9.38021 12.5443 8.83594 13.2891C8.32031 14.0339 7.8763 14.6068 7.50391 15.0078L6.90234 15.6523C6.75911 15.5091 6.55859 15.2943 6.30078 15.0078C6.07161 14.7214 5.64193 14.1628 5.01172 13.332C4.38151 12.5013 3.82292 11.6992 3.33594 10.9258C2.84896 10.1237 2.40495 9.23568 2.00391 8.26172C1.60286 7.25911 1.40234 6.37109 1.40234 5.59766C1.40234 4.07943 1.93229 2.79036 2.99219 1.73047C4.08073 0.64193 5.38411 0.0976562 6.90234 0.0976562C8.42057 0.0976562 9.70964 0.64193 10.7695 1.73047C11.8581 2.79036 12.4023 4.07943 12.4023 5.59766ZM5.61328 4.30859C5.26953 4.65234 5.09766 5.08203 5.09766 5.59766C5.09766 6.08464 5.26953 6.51432 5.61328 6.88672C5.98568 7.23047 6.41536 7.40234 6.90234 7.40234C7.41797 7.40234 7.84766 7.23047 8.19141 6.88672C8.5638 6.51432 8.75 6.08464 8.75 5.59766C8.75 5.08203 8.5638 4.65234 8.19141 4.30859C7.84766 3.9362 7.41797 3.75 6.90234 3.75C6.41536 3.75 5.98568 3.9362 5.61328 4.30859ZM0.5 16.5977H13.3477V18.4023H0.5V16.5977Z" fill="black"/>
</svg>
