<svg width="19" height="16" viewBox="0 0 19 16" fill="none" xmlns="http://www.w3.org/2000/svg">
<path d="M17 0.902344C17.5156 0.902344 17.9453 1.08854 18.2891 1.46094C18.6615 1.80469 18.8477 2.23438 18.8477 2.75V13.75C18.8477 14.2656 18.6615 14.7096 18.2891 15.082C17.9453 15.4258 17.5156 15.5977 17 15.5977H2.34766C1.83203 15.5977 1.38802 15.4258 1.01562 15.082C0.671875 14.7096 0.5 14.2656 0.5 13.75V2.75C0.5 2.23438 0.671875 1.80469 1.01562 1.46094C1.38802 1.08854 1.83203 0.902344 2.34766 0.902344H17ZM17 4.59766V2.75L9.65234 7.34766L2.34766 2.75V4.59766L9.65234 9.15234L17 4.59766Z" fill="black"/>
</svg>
