<svg width="46" height="34" viewBox="0 0 46 34" fill="none" xmlns="http://www.w3.org/2000/svg">
<path d="M3.00016 0.000200015C2.73514 -0.00354808 2.47202 0.0454145 2.22608 0.144242C1.98014 0.24307 1.7563 0.389791 1.56756 0.57588C1.37882 0.761969 1.22895 0.983714 1.12665 1.22823C1.02436 1.47274 0.97168 1.73515 0.97168 2.0002C0.97168 2.26525 1.02436 2.52766 1.12665 2.77217C1.22895 3.01669 1.37882 3.23843 1.56756 3.42452C1.7563 3.61061 1.98014 3.75733 2.22608 3.85616C2.47202 3.95499 2.73514 4.00395 3.00016 4.0002H43.0002C43.2652 4.00395 43.5283 3.95499 43.7743 3.85616C44.0202 3.75733 44.244 3.61061 44.4328 3.42452C44.6215 3.23843 44.7714 3.01669 44.8737 2.77217C44.976 2.52766 45.0286 2.26525 45.0286 2.0002C45.0286 1.73515 44.976 1.47274 44.8737 1.22823C44.7714 0.983714 44.6215 0.761969 44.4328 0.57588C44.244 0.389791 44.0202 0.24307 43.7743 0.144242C43.5283 0.0454145 43.2652 -0.00354808 43.0002 0.000200015H3.00016ZM3.00016 15.0002C2.73514 14.9965 2.47202 15.0454 2.22608 15.1442C1.98014 15.2431 1.7563 15.3898 1.56756 15.5759C1.37882 15.762 1.22895 15.9837 1.12665 16.2282C1.02436 16.4727 0.97168 16.7352 0.97168 17.0002C0.97168 17.2653 1.02436 17.5277 1.12665 17.7722C1.22895 18.0167 1.37882 18.2384 1.56756 18.4245C1.7563 18.6106 1.98014 18.7573 2.22608 18.8562C2.47202 18.955 2.73514 19.0039 3.00016 19.0002H43.0002C43.2652 19.0039 43.5283 18.955 43.7743 18.8562C44.0202 18.7573 44.244 18.6106 44.4328 18.4245C44.6215 18.2384 44.7714 18.0167 44.8737 17.7722C44.976 17.5277 45.0286 17.2653 45.0286 17.0002C45.0286 16.7352 44.976 16.4727 44.8737 16.2282C44.7714 15.9837 44.6215 15.762 44.4328 15.5759C44.244 15.3898 44.0202 15.2431 43.7743 15.1442C43.5283 15.0454 43.2652 14.9965 43.0002 15.0002H3.00016ZM3.00016 30.0002C2.73514 29.9965 2.47202 30.0454 2.22608 30.1442C1.98014 30.2431 1.7563 30.3898 1.56756 30.5759C1.37882 30.762 1.22895 30.9837 1.12665 31.2282C1.02436 31.4727 0.97168 31.7351 0.97168 32.0002C0.97168 32.2652 1.02436 32.5277 1.12665 32.7722C1.22895 33.0167 1.37882 33.2384 1.56756 33.4245C1.7563 33.6106 1.98014 33.7573 2.22608 33.8562C2.47202 33.955 2.73514 34.0039 3.00016 34.0002H43.0002C43.2652 34.0039 43.5283 33.955 43.7743 33.8562C44.0202 33.7573 44.244 33.6106 44.4328 33.4245C44.6215 33.2384 44.7714 33.0167 44.8737 32.7722C44.976 32.5277 45.0286 32.2652 45.0286 32.0002C45.0286 31.7351 44.976 31.4727 44.8737 31.2282C44.7714 30.9837 44.6215 30.762 44.4328 30.5759C44.244 30.3898 44.0202 30.2431 43.7743 30.1442C43.5283 30.0454 43.2652 29.9965 43.0002 30.0002H3.00016Z" fill="black"/>
</svg>
