<svg width="17" height="17" viewBox="0 0 17 17" fill="none" xmlns="http://www.w3.org/2000/svg">
<path d="M11.9727 10.0977L16.5273 14.6523L15.1523 16.0273L10.5977 11.4727V10.7422L10.3398 10.4844C9.22266 11.4297 7.93359 11.9023 6.47266 11.9023C4.8112 11.9023 3.39323 11.3294 2.21875 10.1836C1.07292 9.00911 0.5 7.60547 0.5 5.97266C0.5 4.3112 1.07292 2.90755 2.21875 1.76172C3.39323 0.58724 4.79688 0 6.42969 0C8.09115 0 9.49479 0.58724 10.6406 1.76172C11.8151 2.90755 12.4023 4.3112 12.4023 5.97266C12.4023 7.43359 11.9297 8.72266 10.9844 9.8398L11.2422 10.0977H11.9727ZM3.55078 8.89453C4.35286 9.6966 5.32682 10.0977 6.47266 10.0977C7.61849 10.0977 8.59245 9.6966 9.39453 8.89453C10.1966 8.09245 10.5977 7.11849 10.5977 5.97266C10.5977 4.82682 10.1966 3.85286 9.39453 3.05078C8.59245 2.2487 7.61849 1.84766 6.47266 1.84766C5.32682 1.84766 4.35286 2.2487 3.55078 3.05078C2.7487 3.85286 2.34766 4.82682 2.34766 5.97266C2.34766 7.11849 2.7487 8.09245 3.55078 8.89453Z" fill="black"/>
</svg>
