<svg width="19" height="16" viewBox="0 0 19 16" fill="none" xmlns="http://www.w3.org/2000/svg">
<path d="M16.957 4.51172C16.957 4.68359 16.957 4.84115 16.957 4.98438C16.957 6.27344 16.7135 7.54818 16.2266 8.80859C15.7682 10.0404 15.0951 11.1719 14.207 12.2031C13.3477 13.2344 12.2161 14.0794 10.8125 14.7383C9.4375 15.3685 7.91927 15.6836 6.25781 15.6836C4.16667 15.6836 2.2474 15.125 0.5 14.0078C0.786458 14.0365 1.08724 14.0508 1.40234 14.0508C3.14974 14.0508 4.71094 13.5208 6.08594 12.4609C5.25521 12.4323 4.51042 12.1745 3.85156 11.6875C3.22135 11.2005 2.79167 10.5846 2.5625 9.83984C2.79167 9.89714 3.02083 9.92578 3.25 9.92578C3.59375 9.92578 3.92318 9.86849 4.23828 9.75391C3.37891 9.58203 2.66276 9.15234 2.08984 8.46484C1.51693 7.77734 1.23047 6.98958 1.23047 6.10156C1.23047 6.07292 1.23047 6.05859 1.23047 6.05859C1.77474 6.34505 2.34766 6.5026 2.94922 6.53125C1.83203 5.75781 1.27344 4.71224 1.27344 3.39453C1.27344 2.70703 1.44531 2.07682 1.78906 1.50391C2.73438 2.64974 3.86589 3.56641 5.18359 4.25391C6.52995 4.94141 7.97656 5.32812 9.52344 5.41406C9.46615 5.1276 9.4375 4.84115 9.4375 4.55469C9.4375 3.52344 9.79557 2.64974 10.5117 1.93359C11.2565 1.1888 12.1445 0.816406 13.1758 0.816406C14.2643 0.816406 15.181 1.20313 15.9258 1.97656C16.7852 1.80469 17.5872 1.50391 18.332 1.07422C18.0456 1.96224 17.487 2.64974 16.6562 3.13672C17.4297 3.05078 18.1602 2.86458 18.8477 2.57812C18.332 3.32292 17.7018 3.96745 16.957 4.51172Z" fill="black"/>
</svg>
